<?xml version="1.0" encoding="UTF-8"?><svg id="Layer_2" xmlns="http://www.w3.org/2000/svg" viewBox="0 0 512 114.3"><defs><style>.cls-1{fill:#fff;}.cls-2{fill:red;}</style></defs><g id="Layer_1-2"><g><g><path class="cls-2" d="M159.87,17.85c-1.88-7.03-7.41-12.55-14.44-14.44C132.7,0,81.64,0,81.64,0c0,0-51.06,0-63.79,3.41-7.03,1.88-12.55,7.41-14.44,14.44C0,30.58,0,57.15,0,57.15c0,0,0,26.57,3.41,39.3,1.88,7.03,7.41,12.55,14.44,14.44,12.73,3.41,63.79,3.41,63.79,3.41,0,0,51.06,0,63.79-3.41,7.03-1.88,12.55-7.41,14.44-14.44,3.41-12.73,3.41-39.3,3.41-39.3,0,0-.01-26.57-3.41-39.3Z"/><path class="cls-1" d="M65.3,81.64l42.42-24.49-42.42-24.49v48.98Z"/></g><g id="youtube-paths"><path class="cls-1" d="M197.75,74.32L179.42,8.11h15.99l6.42,30.01c1.64,7.39,2.84,13.7,3.62,18.91h.47c.54-3.74,1.75-10,3.62-18.8l6.65-30.12h15.99l-18.56,66.21v31.76h-15.89v-31.76h.01Z"/><path class="cls-1" d="M237,103.98c-3.23-2.18-5.52-5.56-6.9-10.16-1.36-4.6-2.04-10.7-2.04-18.33v-10.39c0-7.7,.78-13.9,2.34-18.56,1.56-4.66,3.99-8.08,7.3-10.22,3.31-2.14,7.65-3.21,13.02-3.21s9.53,1.09,12.73,3.27c3.19,2.18,5.52,5.59,7,10.22,1.48,4.64,2.22,10.81,2.22,18.51v10.39c0,7.63-.73,13.76-2.16,18.39-1.44,4.64-3.78,8.02-7,10.16-3.23,2.14-7.61,3.21-13.13,3.21-5.7,.01-10.15-1.09-13.37-3.27Zm18.09-11.21c.89-2.34,1.34-6.14,1.34-11.44v-22.3c0-5.13-.44-8.9-1.34-11.26-.9-2.38-2.47-3.56-4.73-3.56s-3.72,1.18-4.61,3.56c-.9,2.38-1.34,6.13-1.34,11.26v22.3c0,5.3,.43,9.11,1.29,11.44,.86,2.34,2.41,3.51,4.66,3.51s3.83-1.17,4.73-3.51Z"/><path class="cls-1" d="M324.7,106.09h-12.61l-1.4-8.76h-.35c-3.43,6.61-8.56,9.92-15.42,9.92-4.74,0-8.25-1.56-10.51-4.66-2.26-3.12-3.39-7.98-3.39-14.6V34.5h16.12v52.54c0,3.2,.35,5.47,1.05,6.83,.7,1.36,1.87,2.04,3.51,2.04,1.4,0,2.74-.43,4.03-1.29,1.29-.86,2.23-1.95,2.86-3.27V34.49h16.1V106.09Z"/><path class="cls-1" d="M368.48,21.07h-15.99V106.09h-15.77V21.07h-15.99V8.12h47.76v12.96Z"/><path class="cls-1" d="M407.35,106.09h-12.61l-1.4-8.76h-.35c-3.43,6.61-8.56,9.92-15.42,9.92-4.74,0-8.25-1.56-10.51-4.66-2.26-3.12-3.39-7.98-3.39-14.6V34.5h16.12v52.54c0,3.2,.35,5.47,1.05,6.83,.7,1.36,1.87,2.04,3.51,2.04,1.4,0,2.74-.43,4.03-1.29,1.29-.86,2.23-1.95,2.86-3.27V34.49h16.1V106.09Z"/><path class="cls-1" d="M460.68,45.94c-.98-4.52-2.55-7.78-4.73-9.81-2.18-2.03-5.17-3.04-8.99-3.04-2.96,0-5.73,.83-8.29,2.51-2.57,1.68-4.56,3.87-5.95,6.6h-.12V4.49h-15.52V106.08h13.31l1.64-6.77h.35c1.25,2.42,3.12,4.31,5.6,5.73,2.49,1.4,5.26,2.1,8.29,2.1,5.44,0,9.46-2.51,12.03-7.53,2.57-5.03,3.86-12.86,3.86-23.53v-11.33c0-8-.5-14.27-1.46-18.79Zm-14.77,29.21c0,5.21-.21,9.3-.65,12.26-.43,2.96-1.14,5.07-2.16,6.3-1.01,1.25-2.38,1.87-4.09,1.87-1.33,0-2.55-.31-3.68-.94-1.13-.62-2.04-1.56-2.74-2.8V51.21c.54-1.95,1.48-3.53,2.81-4.78,1.32-1.25,2.77-1.87,4.31-1.87,1.64,0,2.9,.65,3.79,1.92,.9,1.29,1.52,3.44,1.87,6.48,.35,3.04,.52,7.35,.52,12.96v9.23h.01Z"/><path class="cls-1" d="M485.01,79.27c0,4.6,.13,8.04,.4,10.34,.27,2.3,.83,3.97,1.69,5.03,.86,1.05,2.18,1.57,3.97,1.57,2.41,0,4.07-.94,4.96-2.81,.9-1.87,1.38-4.99,1.47-9.34l13.9,.82c.08,.62,.12,1.48,.12,2.57,0,6.61-1.81,11.56-5.43,14.83-3.62,3.27-8.74,4.91-15.35,4.91-7.94,0-13.51-2.49-16.69-7.47-3.2-4.99-4.78-12.69-4.78-23.12v-12.5c0-10.74,1.65-18.59,4.96-23.53,3.31-4.95,8.97-7.42,16.99-7.42,5.52,0,9.77,1.01,12.73,3.04,2.96,2.03,5.04,5.17,6.25,9.46,1.21,4.29,1.81,10.2,1.81,17.76v12.26h-26.99v3.63Zm2.04-33.74c-.82,1.01-1.36,2.66-1.64,4.96-.27,2.3-.4,5.78-.4,10.46v5.13h11.79v-5.13c0-4.6-.16-8.08-.47-10.46-.31-2.38-.87-4.05-1.69-5.03-.82-.97-2.08-1.47-3.79-1.47-1.72,.01-2.98,.52-3.79,1.53Z"/></g></g></g></svg>